<svg width="299" height="172" viewBox="0 0 299 172" fill="none" xmlns="http://www.w3.org/2000/svg">
<path d="M150 171.333C147.192 171.35 144.409 170.811 141.81 169.75C139.211 168.688 136.847 167.124 134.853 165.147L6.8533 37.1466C2.83616 33.1295 0.579346 27.6811 0.579346 22C0.579346 16.3189 2.83616 10.8704 6.8533 6.8533C10.8704 2.83616 16.3189 0.579346 22 0.579346C27.6811 0.579346 33.1295 2.83616 37.1466 6.8533L150 119.92L262.853 7.06664C266.934 3.57168 272.184 1.7454 277.553 1.95279C282.922 2.16017 288.015 4.38594 291.815 8.18529C295.614 11.9846 297.84 17.0777 298.047 22.4468C298.255 27.8159 296.428 33.0655 292.933 37.1466L164.933 165.147C160.96 169.088 155.597 171.31 150 171.333Z" fill="white"/>
</svg>
