<?xml version="1.0" encoding="UTF-8"?>
<svg version="1.1" xmlns="http://www.w3.org/2000/svg" width="889" height="289">
<path d="M0 0 C293.37 0 586.74 0 889 0 C889 95.37 889 190.74 889 289 C595.63 289 302.26 289 0 289 C0 193.63 0 98.26 0 0 Z " fill="#000000" transform="translate(0,0)"/>
<path d="M0 0 C1.73452423 -0.01506844 1.73452423 -0.01506844 3.50408936 -0.03044128 C4.77420364 -0.03627228 6.04431793 -0.04210327 7.35292053 -0.04811096 C8.703336 -0.05765159 10.05374902 -0.06754284 11.40415955 -0.07775879 C15.84286095 -0.10913811 20.281581 -0.12941892 24.72035217 -0.14796448 C25.47676349 -0.1512618 26.23317481 -0.15455912 27.01250768 -0.15795636 C34.15422294 -0.18875175 41.29594255 -0.21544578 48.43770504 -0.23237514 C57.5533266 -0.25424005 66.66835601 -0.29611609 75.78374094 -0.36581272 C82.20261598 -0.41321141 88.62133225 -0.43733023 95.04037672 -0.44457203 C98.86844092 -0.44950702 102.69583776 -0.46437826 106.52371025 -0.50431633 C110.13303352 -0.54147558 113.74131653 -0.54949854 117.35079575 -0.5363102 C119.28802626 -0.53638894 121.22518707 -0.56605439 123.16217041 -0.59700012 C132.59552532 -0.51962285 140.73280901 1.71534256 147.7434988 8.33173466 C156.49371742 18.00222009 156.74488658 27.66551582 156.70179749 40.28611755 C156.70705444 42.20023941 156.70705444 42.20023941 156.7124176 44.1530304 C156.72146452 47.62397845 156.71802996 51.09480641 156.71165943 54.56575632 C156.70656143 58.21350308 156.71130117 61.86124022 156.71443176 65.50898743 C156.71805948 71.63002857 156.71330282 77.75102128 156.70375061 83.87205505 C156.69285861 90.93284674 156.69640184 97.99352296 156.70740342 105.05431187 C156.71649881 111.13697611 156.71775087 117.21960574 156.71252608 123.30227458 C156.70941999 126.9263955 156.7089596 130.55046226 156.71559906 134.17457962 C156.72248477 138.21443196 156.71292309 142.25408717 156.70179749 146.29393005 C156.70584595 147.48375488 156.70989441 148.67357971 156.71406555 149.89945984 C156.66060954 160.39430699 155.1997615 168.93012844 147.87660217 176.85594177 C139.45576378 184.6320292 130.95846952 185.75027103 119.80433655 185.6782074 C118.44816337 185.6836377 117.0919961 185.69076543 115.73583984 185.69944763 C112.0766452 185.71757643 108.41790513 185.71065725 104.75870323 185.69793129 C100.91521932 185.68774902 97.07177231 185.69721139 93.22828674 185.70347595 C86.77586435 185.71073724 80.32362555 185.70120475 73.87123108 185.68211365 C66.4292169 185.66034769 58.98764118 185.66740015 51.54563761 185.68941927 C45.13683799 185.70761678 38.72816976 185.71011043 32.31935263 185.69966459 C28.50007035 185.69345346 24.68099363 185.69252791 20.86172485 185.70581055 C17.26965546 185.71743218 13.67814706 185.70922979 10.08613777 185.68623352 C8.15207804 185.67848928 6.21797042 185.69024829 4.28393555 185.70274353 C-2.92147006 185.63321695 -8.26914968 184.72824506 -14.55699158 181.16062927 C-15.60886658 180.60375427 -16.66074158 180.04687927 -17.74449158 179.47312927 C-23.3287126 174.88165865 -26.55653296 169.04665103 -28.55699158 162.16062927 C-28.81705379 159.26384354 -28.81705379 159.26384354 -28.83114624 156.19145203 C-28.84112137 155.01967407 -28.8510965 153.84789612 -28.8613739 152.64060974 C-28.86203857 151.36878845 -28.86270325 150.09696716 -28.86338806 148.78660583 C-28.87101648 147.42264862 -28.87944515 146.05869568 -28.88861084 144.69474792 C-28.91049723 141.00032632 -28.91934697 137.30598747 -28.92443728 133.61150837 C-28.92808823 131.29941906 -28.93433214 128.98735119 -28.94143867 126.67527008 C-28.96591417 118.59778905 -28.97898066 110.52037205 -28.98252869 102.44285583 C-28.98616107 94.93216321 -29.0160397 87.42187994 -29.05793327 79.91131234 C-29.09271074 73.44822944 -29.10807842 66.9852817 -29.10877472 60.52210593 C-29.1095651 56.66855493 -29.11819214 52.81542117 -29.14677238 48.96196747 C-29.17308131 45.33379196 -29.17508808 41.70637581 -29.15911674 38.07814789 C-29.15645772 36.12630409 -29.17839895 34.17447421 -29.2013092 32.22276306 C-29.1210643 22.49951457 -26.80826387 15.53272097 -20.24449158 8.28562927 C-14.49713434 2.95328908 -7.82125446 0.05338402 0 0 Z " fill="#40444E" transform="translate(78.55699157714844,60.83937072753906)"/>
<path d="M0 0 C1.7960242 0.00747996 3.59205669 0.01316457 5.38809204 0.01715088 C10.06692889 0.03226935 14.74525225 0.07142841 19.42388916 0.1159668 C24.21741799 0.15722078 29.01103151 0.17522559 33.8046875 0.1953125 C43.17470216 0.23793918 52.54433928 0.30601864 61.9140625 0.390625 C60.53165271 3.22150753 59.06140314 5.69198829 57.1640625 8.2109375 C56.638125 8.91089844 56.1121875 9.61085938 55.5703125 10.33203125 C55.02375 11.05261719 54.4771875 11.77320312 53.9140625 12.515625 C53.3675 13.24394531 52.8209375 13.97226563 52.2578125 14.72265625 C48.19554746 20.10914004 48.19554746 20.10914004 45.9140625 22.390625 C43.30201721 22.65563965 43.30201721 22.65563965 39.95141602 22.67773438 C38.07420616 22.69785583 38.07420616 22.69785583 36.15907288 22.71838379 C35.48847399 22.72094681 34.8178751 22.72350983 34.12695503 22.72615051 C32.02967603 22.73442746 29.93283504 22.75492042 27.8356781 22.77868652 C23.3827044 22.82695769 18.92968707 22.85986179 14.4765625 22.890625 C9.32033072 22.9262761 4.16431248 22.96818692 -0.99171638 23.02656555 C-3.05850666 23.04664644 -5.12513381 23.05495635 -7.19200134 23.06286621 C-8.44662674 23.07628052 -9.70125214 23.08969482 -10.99389648 23.10351562 C-12.65363747 23.11445251 -12.65363747 23.11445251 -14.34690857 23.12561035 C-17.30246077 23.19409141 -17.30246077 23.19409141 -20.0859375 25.390625 C-19.7559375 27.700625 -19.4259375 30.010625 -19.0859375 32.390625 C-15.96520014 33.43087079 -13.76251596 33.52730769 -10.48803711 33.54833984 C-9.33931625 33.55860199 -8.1905954 33.56886414 -7.00706482 33.57943726 C-5.76336624 33.58673859 -4.51966766 33.59403992 -3.23828125 33.6015625 C-1.27953761 33.62244908 0.67920602 33.64335331 2.6379385 33.66526222 C7.46420322 33.71828413 12.29047685 33.76245986 17.11694336 33.79199219 C19.82236215 33.80898831 22.52750281 33.83378176 25.23277283 33.86685181 C27.77592177 33.89760629 30.31923809 33.917191 32.86256409 33.92391968 C42.49012275 34.06014836 51.2164247 35.15920392 58.9140625 41.390625 C64.32269975 47.24998202 65.38567204 52.45791559 65.22265625 60.25390625 C64.58734599 66.71155356 62.56257548 72.25166473 57.7890625 76.765625 C49.63151674 82.97168891 40.34693548 84.54928388 30.36010742 84.50415039 C29.51081665 84.50429642 28.66152588 84.50444244 27.78649902 84.5045929 C24.98915013 84.50389819 22.19186846 84.49612649 19.39453125 84.48828125 C17.4511163 84.4864155 15.50770087 84.48499234 13.56428528 84.48399353 C8.45645849 84.48018071 3.34866026 84.47036097 -1.75915527 84.45928955 C-6.97419854 84.44904887 -12.18924644 84.44449022 -17.40429688 84.43945312 C-27.63152295 84.4287376 -37.85872785 84.41167601 -48.0859375 84.390625 C-46.69596074 81.54267332 -45.21338419 79.06616007 -43.30078125 76.53515625 C-42.77033203 75.83068359 -42.23988281 75.12621094 -41.69335938 74.40039062 C-41.14228516 73.67529297 -40.59121094 72.95019531 -40.0234375 72.203125 C-39.46849609 71.46642578 -38.91355469 70.72972656 -38.34179688 69.97070312 C-34.25464051 64.55932801 -34.25464051 64.55932801 -33.0859375 63.390625 C-30.99065448 63.2825028 -28.89174097 63.24432664 -26.79370117 63.23291016 C-26.13673752 63.22782944 -25.47977386 63.22274872 -24.80290222 63.21751404 C-23.37166376 63.20678913 -21.94040831 63.19817732 -20.50914574 63.19139481 C-18.24374419 63.17963475 -15.9785358 63.16018879 -13.71321106 63.13827515 C-7.27070547 63.07656813 -0.82821749 63.02263142 5.61450195 62.98925781 C9.55155554 62.9683114 13.48826094 62.93300497 17.42511559 62.88850021 C18.92616361 62.87433519 20.42727327 62.86561663 21.92838478 62.86244583 C24.0305076 62.85753663 26.13170734 62.83437944 28.23364258 62.80712891 C30.02781364 62.79499863 30.02781364 62.79499863 31.85823059 62.78262329 C35.17243615 62.35748115 36.58133764 61.74719391 38.9140625 59.390625 C39.58072917 56.890625 39.58072917 56.890625 38.9140625 54.390625 C35.79534769 51.35030014 33.47742386 51.01456262 29.20263672 51.00585938 C28.05399139 50.99574829 26.90534607 50.98563721 25.72189331 50.97521973 C24.48335602 50.97824097 23.24481873 50.98126221 21.96875 50.984375 C20.01217944 50.96781359 18.05560886 50.9512355 16.09904671 50.93370819 C12.66242775 50.90694295 9.2257668 50.89938568 5.7890625 50.890625 C1.71025254 50.88016867 -2.36831962 50.86613081 -6.44699097 50.82971191 C-8.98461253 50.80832808 -11.52238515 50.79977859 -14.06008911 50.80603027 C-23.59254538 50.72347896 -32.52514747 49.69128336 -40.0859375 43.390625 C-45.71378334 36.0431596 -47.16591568 29.51928269 -46.0859375 20.390625 C-44.23554713 14.23700122 -41.11831541 9.21474786 -35.63442993 5.73919678 C-24.29835337 -0.25945275 -12.44317649 -0.1542721 0 0 Z " fill="#B09350" transform="translate(308.0859375,61.609375)"/>
<path d="M0 0 C8.04568257 2.28457653 12.32053292 10.4895158 16.69677734 17.04980469 C18.37443179 19.56031493 20.0905619 22.04318367 21.80688477 24.52734375 C23.17302576 26.50709688 24.53206245 28.49160248 25.890625 30.4765625 C29.52423927 35.77459117 33.20149043 41.04209651 36.875 46.3125 C42.0004197 53.67295076 47.1134175 61.0415421 52.1875 68.4375 C52.7036084 69.18749268 53.2197168 69.93748535 53.75146484 70.71020508 C54.48357178 71.77984497 54.48357178 71.77984497 55.23046875 72.87109375 C55.64707764 73.47880615 56.06368652 74.08651855 56.49291992 74.71264648 C58.72532129 78.10084808 60.84951495 81.55922392 63 85 C30.99 85 -1.02 85 -34 85 C-31.69 81.37 -29.38 77.74 -27 74 C-26.40574219 72.93668457 -25.81148437 71.87336914 -25.19921875 70.77783203 C-23.07607014 67.41412275 -21.13337756 64.62317826 -17.15917969 63.46228027 C-11.7949268 62.58708334 -6.41519178 62.74944288 -1 62.875 C0.64974049 62.8769443 2.2994928 62.87438155 3.94921875 62.8671875 C7.96816234 62.85940325 11.98203842 62.91290178 16 63 C13.37306919 59.08173655 10.74026549 55.16751075 8.10205078 51.25683594 C7.20623726 49.92718856 6.31201014 48.59647091 5.41943359 47.26464844 C4.13278743 45.34543711 2.84039878 43.43020551 1.546875 41.515625 C0.95444 40.62789398 0.95444 40.62789398 0.35003662 39.722229 C-1.84706015 36.48357493 -4.13054259 33.66367959 -7 31 C-7.36125977 31.5168335 -7.72251953 32.03366699 -8.09472656 32.56616211 C-18.62653996 47.63038099 -29.16663619 62.68849513 -39.87988281 77.62451172 C-41.6255061 80.06059005 -43.33731263 82.50596894 -45 85 C-48.07275391 85.34057617 -48.07275391 85.34057617 -51.9765625 85.29296875 C-53.00443375 85.28660149 -53.00443375 85.28660149 -54.05307007 85.28010559 C-56.24411129 85.26329753 -58.43423632 85.22564405 -60.625 85.1875 C-62.10936173 85.17245579 -63.59373785 85.15876693 -65.078125 85.14648438 C-68.71904833 85.1133879 -72.35943478 85.06159207 -76 85 C-71.81048343 78.29334775 -67.49551532 71.74627495 -62.8125 65.375 C-61.67371929 63.81175118 -60.53571658 62.24793536 -59.3984375 60.68359375 C-58.83092773 59.9035498 -58.26341797 59.12350586 -57.67871094 58.31982422 C-55.06878038 54.71314008 -52.50035795 51.07772158 -49.9375 47.4375 C-49.44749512 46.74205078 -48.95749023 46.04660156 -48.45263672 45.33007812 C-46.46258454 42.50379803 -44.47469279 39.67600792 -42.48828125 36.84716797 C-39.49511278 32.58536543 -36.49461238 28.32896861 -33.47900391 24.08300781 C-32.48467187 22.68260489 -31.49218744 21.28088844 -30.50146484 19.87792969 C-29.05111167 17.82908597 -27.58969603 15.7886064 -26.125 13.75 C-25.69695068 13.1420459 -25.26890137 12.5340918 -24.82788086 11.90771484 C-18.18747941 2.74187243 -11.49170119 -1.30620869 0 0 Z " fill="#B1934F" transform="translate(672,61)"/>
<path d="M0 0 C10.24634362 2.5166458 16.11889844 12.85060357 21.5234375 21.2265625 C24.78645523 26.25716506 28.25282219 31.14839264 31.6875 36.0625 C37.27608652 44.07071328 42.82147194 52.1057773 48.31787109 60.17749023 C52.60026398 66.4516468 56.97265199 72.65954906 61.39550781 78.83544922 C65 83.89423516 65 83.89423516 65 85 C32.99 85 0.98 85 -32 85 C-29.69 81.37 -27.38 77.74 -25 74 C-24.40574219 72.93668457 -23.81148438 71.87336914 -23.19921875 70.77783203 C-21.07607014 67.41412275 -19.13337756 64.62317826 -15.15917969 63.46228027 C-9.7949268 62.58708334 -4.41519178 62.74944288 1 62.875 C2.64974049 62.8769443 4.2994928 62.87438155 5.94921875 62.8671875 C9.96816234 62.85940325 13.98203842 62.91290178 18 63 C15.64690906 59.54093363 13.29232489 56.08288613 10.9375 52.625 C10.28072266 51.65949219 9.62394531 50.69398437 8.94726562 49.69921875 C4.67844852 43.43267936 0.36463834 37.20018618 -4 31 C-6.36873618 33.29542484 -8.50729329 35.51374077 -10.33984375 38.2578125 C-10.96439453 39.18207031 -10.96439453 39.18207031 -11.6015625 40.125 C-12.04242188 40.785 -12.48328125 41.445 -12.9375 42.125 C-17.54921241 48.93575783 -22.23385623 55.68825905 -27.20141602 62.24609375 C-29.9734468 65.94911149 -32.31109912 69.45430632 -34.1796875 73.6953125 C-38.32974689 82.44301448 -38.32974689 82.44301448 -43 85 C-53.16503172 86.96760814 -63.76219315 85.97315777 -74 85 C-69.83510154 78.3299808 -65.54272429 71.82740866 -60.875 65.5 C-56.25826658 59.17971211 -51.76711742 52.79079118 -47.375 46.3125 C-43.02496593 39.90421742 -38.58322252 33.58589483 -33.96142578 27.37060547 C-31.70530331 24.33571152 -29.48787704 21.28450875 -27.33984375 18.171875 C-20.05674455 7.64292857 -13.83373521 -1.24990869 0 0 Z " fill="#B1934F" transform="translate(446,61)"/>
<path d="M0 0 C22.77446623 -0.90694777 48.81432339 3.34852092 67 18 C71.51392569 22.38219634 76.71864706 27.58256076 77.13867188 34.17724609 C77.07940973 36.68515875 76.95336635 39.18289625 76.8125 41.6875 C76.53362242 50.18706898 77.6652409 56.07751498 83 63 C85.22410761 57.5871116 85.3118704 52.62832286 85.4375 46.875 C85.8715362 35.13477601 86.72090725 24.06342785 95 15 C103.56166192 7.54736164 112.61111838 3.26523344 124 4 C125.83934616 12.40843959 126.2442283 20.66877271 126.3125 29.25 C126.32990234 30.26707031 126.34730469 31.28414062 126.36523438 32.33203125 C126.35939117 41.29550389 124.93503517 48.89067512 118.66015625 55.56640625 C112.43927525 60.93831996 103.10558191 61.8783511 95.203125 62.5546875 C94.22504883 62.63960449 93.24697266 62.72452148 92.23925781 62.81201172 C91.50030273 62.87404785 90.76134766 62.93608398 90 63 C89.91435791 63.68102783 89.82871582 64.36205566 89.74047852 65.0637207 C89.35095243 68.14705243 88.95678098 71.22977286 88.5625 74.3125 C88.36043945 75.9202832 88.36043945 75.9202832 88.15429688 77.56054688 C87.95610352 79.10258789 87.95610352 79.10258789 87.75390625 80.67578125 C87.63345947 81.62364502 87.5130127 82.57150879 87.38891602 83.5480957 C87 86 87 86 86 89 C84.1875 88.875 84.1875 88.875 82 88 C79.3121969 83.55634563 78.40278378 79.31084453 77.6875 74.25 C76.48818919 67.09411218 74.42785578 61.84866225 70 56 C69.36191406 55.13246094 68.72382813 54.26492187 68.06640625 53.37109375 C57.98561711 40.3678006 45.23532298 30.5824418 32 21 C35.2490409 25.36183741 38.97997593 28.82003958 43 32.4375 C52.69609995 41.32273089 61.50431622 51.1729012 69 62 C69 62.66 69 63.32 69 64 C52.92132625 66.92339523 38.4836738 64.54121536 24.78125 55.54296875 C11.50875832 45.14091674 2.36169191 24.22569809 0 8 C-0.18133365 5.27175274 -0.16087396 2.73485731 0 0 Z " fill="#B19450" transform="translate(83,82)"/>
<path d="M0 0 C26.31550043 -3.91348844 26.31550043 -3.91348844 34.86181641 1.97021484 C39.57992481 7.08321802 42.78796026 13.09384167 45.94189453 19.25994873 C49.60806659 26.39912743 54.15015272 32.91991549 58.67834473 39.53216553 C60.88868696 42.77438417 63.05499502 46.04556741 65.22265625 49.31640625 C65.95234619 50.41412354 66.68203613 51.51184082 67.43383789 52.64282227 C67.95067139 53.42069092 68.46750488 54.19855957 69 55 C71.31095894 52.13459603 73.58427523 49.25977534 75.7421875 46.27734375 C76.24395508 45.58398926 76.74572266 44.89063477 77.26269531 44.17626953 C78.06078613 43.06807861 78.06078613 43.06807861 78.875 41.9375 C79.43799805 41.15745605 80.00099609 40.37741211 80.58105469 39.57373047 C85.42023298 32.84879406 90.17724495 26.06764213 94.89013672 19.25366211 C95.98222509 17.68179626 97.09090869 16.1213429 98.21508789 14.57226562 C100.09481409 11.93848825 100.09481409 11.93848825 101.87670898 8.75585938 C107.02425256 0.53337253 107.02425256 0.53337253 112.52880859 -0.95263672 C116.61047053 -1.18134834 120.49549346 -1.05563821 124.5625 -0.75 C125.9665668 -0.6896937 127.37088459 -0.6349604 128.77539062 -0.5859375 C132.19007591 -0.44512574 135.59174822 -0.24856815 139 0 C137.66172714 2.80121743 136.16904216 5.35198864 134.41796875 7.9140625 C133.64827759 9.04158936 133.64827759 9.04158936 132.86303711 10.19189453 C132.31010986 10.99481934 131.75718262 11.79774414 131.1875 12.625 C130.6107251 13.46530762 130.0339502 14.30561523 129.43969727 15.17138672 C124.46231902 22.39192864 119.34262835 29.50353547 114.1875 36.59765625 C111.0682628 40.89419678 107.99509789 45.22194144 104.9375 49.5625 C104.4520874 50.25134277 103.9666748 50.94018555 103.46655273 51.64990234 C101.43409313 54.53644717 99.40395085 57.42460983 97.37548828 60.31396484 C96.28032305 61.87372602 95.18454602 63.43305781 94.08813477 64.99194336 C93.05984826 66.45399131 92.03290431 67.91698482 91.00756836 69.38110352 C80.75720772 83.95038662 80.75720772 83.95038662 72.12890625 85.5234375 C64.41724149 85.93603612 59.81180563 84.05944821 54 79 C51.0681961 75.56688322 48.59681153 71.89817121 46.125 68.125 C45.43229004 67.09850342 44.73958008 66.07200684 44.02587891 65.0144043 C42.6388121 62.95762468 41.25827364 60.89642517 39.88476562 58.83056641 C37.42088656 55.13027963 34.90180188 51.46993865 32.375 47.8125 C31.50777969 46.54819959 30.64059261 45.28387639 29.7734375 44.01953125 C26.54406725 39.32644717 23.27112799 34.66402671 20 30 C15.56854658 23.67689494 11.14140425 17.35100937 6.75 11 C6.29625 10.34773438 5.8425 9.69546875 5.375 9.0234375 C3.35477943 6.09287063 1.54455814 3.20378538 0 0 Z " fill="#B0924F" transform="translate(486,62)"/>
<path d="M0 0 C8.91 0 17.82 0 27 0 C27.02303369 6.52877199 27.04292403 13.0574013 27.05493164 19.58618164 C27.05994084 21.80428548 27.06675005 24.02238604 27.07543945 26.24047852 C27.08765516 29.44027517 27.0932626 32.64002792 27.09765625 35.83984375 C27.10281754 36.82145981 27.10797882 37.80307587 27.11329651 38.81443787 C27.11429529 51.24837448 26.15479542 62.74729698 17.15234375 72.1875 C2.26911591 84.7207445 -17.70139946 84.56631632 -36 84.25 C-38.04685731 84.22988187 -40.09373395 84.2116406 -42.140625 84.1953125 C-47.09423865 84.15178968 -52.0468981 84.08306285 -57 84 C-56.58967026 83.4641478 -56.17934052 82.92829559 -55.75657654 82.37620544 C-54.94785851 81.31104454 -54.94785851 81.31104454 -54.12280273 80.22436523 C-53.32168312 79.17308693 -53.32168312 79.17308693 -52.50437927 78.10057068 C-51.17593204 76.2456546 -50.09057803 74.42717158 -49.03515625 72.41015625 C-46.77376291 68.57250458 -44.84970708 65.36116669 -41 63 C-35.31599795 61.58229392 -29.56513836 61.85847174 -23.75390625 62.0546875 C-16.64831353 62.22675335 -9.89570807 60.85325316 -3.875 57 C-0.91369244 53.84127193 -0.8650012 51.03507064 -0.79467773 46.88598633 C-0.77473251 45.84513382 -0.75478729 44.80428131 -0.73423767 43.73188782 C-0.71752518 42.60993515 -0.70081268 41.48798248 -0.68359375 40.33203125 C-0.66281265 39.18208176 -0.64203156 38.03213226 -0.62062073 36.84733582 C-0.55516658 33.16911875 -0.49625926 29.49082952 -0.4375 25.8125 C-0.39431087 23.32095604 -0.35069645 20.82941941 -0.30664062 18.33789062 C-0.1986881 12.22533335 -0.09958334 6.11272233 0 0 Z " fill="#AE914E" transform="translate(795,62)"/>
<path d="M0 0 C8.70208569 4.50868932 13.11592974 10.16028921 16.1875 19.375 C17.06115819 27.74195726 15.39612498 34.99879808 10.125 41.625 C4.06112028 47.94154137 -2.12439119 50.64167766 -10.875 51 C-19.51749391 50.64380177 -24.76485349 47.78159721 -30.6875 41.625 C-35.44946994 35.73606734 -37.46311292 29.19355714 -37.16015625 21.6328125 C-36.06631347 14.52897961 -32.20874259 8.06182277 -26.8125 3.375 C-18.62180303 -2.40236661 -9.39963555 -3.78862861 0 0 Z " fill="#F8F6F3" transform="translate(125.8125,152.625)"/>
<path d="M0 0 C2.31 0 4.62 0 7 0 C7.24121582 0.61818604 7.48243164 1.23637207 7.73095703 1.87329102 C8.86166057 4.76994594 9.99326796 7.66624676 11.125 10.5625 C11.53226318 11.60559326 11.93952637 12.64868652 12.35913086 13.72338867 C14.19686682 18.42296459 16.03919981 23.1198067 17.93359375 27.796875 C18.21251465 28.48579834 18.49143555 29.17472168 18.77880859 29.88452148 C19.51742652 31.70161361 20.26052183 33.51688392 21.00390625 35.33203125 C22 38 22 38 22 40 C19.36 40 16.72 40 14 40 C12.515 35.545 12.515 35.545 11 31 C5.72 31 0.44 31 -5 31 C-5.66 33.97 -6.32 36.94 -7 40 C-9.64 40 -12.28 40 -15 40 C-12.70534207 31.60336032 -9.59308522 23.57856107 -6.375 15.5 C-5.86683288 14.2136817 -5.35901811 12.92722416 -4.8515625 11.640625 C-1.17426658 2.34853316 -1.17426658 2.34853316 0 0 Z " fill="#3F424D" transform="translate(706,164)"/>
<path d="M0 0 C2.31 0 4.62 0 7 0 C10.58655401 8.48608607 14.00370764 17.02704178 17.3125 25.625 C17.76689453 26.79417969 18.22128906 27.96335938 18.68945312 29.16796875 C19.11806641 30.28042969 19.54667969 31.39289063 19.98828125 32.5390625 C20.37540283 33.54146973 20.76252441 34.54387695 21.16137695 35.57666016 C22 38 22 38 22 40 C19.36 40 16.72 40 14 40 C13.01 37.36 12.02 34.72 11 32 C6.05 32 1.1 32 -4 32 C-4.99 34.64 -5.98 37.28 -7 40 C-9.64 40 -12.28 40 -15 40 C-12.29577539 31.50778587 -9.04929562 23.23646589 -5.8125 14.9375 C-5.24784991 13.4851026 -4.6833952 12.03262923 -4.11914062 10.58007812 C-2.74834462 7.05250551 -1.3749091 3.52597141 0 0 Z " fill="#3F424D" transform="translate(383,164)"/>
<path d="M0 0 C16.5 0 33 0 50 0 C50 4.29 50 8.58 50 13 C48.39948336 14.60051664 46.71153878 14.12731472 44.49609375 14.12939453 C43.05955444 14.13412277 43.05955444 14.13412277 41.59399414 14.13894653 C40.55235107 14.1369223 39.51070801 14.13489807 38.4375 14.1328125 C37.37587646 14.13376923 36.31425293 14.13472595 35.22045898 14.13571167 C32.97086528 14.13639364 30.72126963 14.13453819 28.47167969 14.13037109 C25.01492929 14.1250231 21.55830883 14.13031554 18.1015625 14.13671875 C15.92187471 14.13605797 13.742187 14.13477682 11.5625 14.1328125 C10.52085693 14.13483673 9.47921387 14.13686096 8.40600586 14.13894653 C7.44831299 14.13579437 6.49062012 14.13264221 5.50390625 14.12939453 C4.65642822 14.12859894 3.8089502 14.12780334 2.93579102 14.12698364 C1 14 1 14 0 13 C0 8.71 0 4.42 0 0 Z " fill="#AE9252" transform="translate(150,212)"/>
<path d="M0 0 C16.5 0 33 0 50 0 C50 4.29 50 8.58 50 13 C48.39948336 14.60051664 46.71153878 14.12731472 44.49609375 14.12939453 C43.05955444 14.13412277 43.05955444 14.13412277 41.59399414 14.13894653 C40.55235107 14.1369223 39.51070801 14.13489807 38.4375 14.1328125 C37.37587646 14.13376923 36.31425293 14.13472595 35.22045898 14.13571167 C32.97086528 14.13639364 30.72126963 14.13453819 28.47167969 14.13037109 C25.01492929 14.1250231 21.55830883 14.13031554 18.1015625 14.13671875 C15.92187471 14.13605797 13.742187 14.13477682 11.5625 14.1328125 C10.52085693 14.13483673 9.47921387 14.13686096 8.40600586 14.13894653 C7.44831299 14.13579437 6.49062012 14.13264221 5.50390625 14.12939453 C4.65642822 14.12859894 3.8089502 14.12780334 2.93579102 14.12698364 C1 14 1 14 0 13 C0 8.71 0 4.42 0 0 Z " fill="#B19451" transform="translate(88,212)"/>
<path d="M0 0 C16 0 16 0 22 3 C24.92669196 6.41447395 25.53817141 9.51223431 25.3515625 14.0078125 C24.57919747 18.38454766 22.06326048 21.1139496 18.75 23.875 C14.98016023 25.41720718 12.05652128 25.20626379 8 25 C8 29.95 8 34.9 8 40 C5.36 40 2.72 40 0 40 C0 26.8 0 13.6 0 0 Z " fill="#3D414C" transform="translate(463,164)"/>
<path d="M0 0 C16.5 0 33 0 50 0 C50 4.29 50 8.58 50 13 C33.5 13 17 13 0 13 C0 8.71 0 4.42 0 0 Z " fill="#B19452" transform="translate(150,186)"/>
<path d="M0 0 C3.56114157 1.88878227 6.02346395 4.71121032 8.12109375 8.125 C8.12109375 8.785 8.12109375 9.445 8.12109375 10.125 C6.68453521 10.20631463 5.24664545 10.26433559 3.80859375 10.3125 C2.60783203 10.36470703 2.60783203 10.36470703 1.3828125 10.41796875 C-1.40636027 10.05667694 -2.04114549 9.16867233 -3.87890625 7.125 C-8.37159769 5.62743619 -12.20401233 5.43981612 -16.62890625 7.25 C-20.46971088 10.45067053 -21.69249715 13.66035708 -22.31640625 18.5625 C-21.7085871 23.51188454 -20.10813349 27.35699219 -16.06640625 30.5625 C-12.86374081 31.38604254 -10.17306625 31.4139614 -6.87890625 31.125 C-6.11578125 30.63 -5.35265625 30.135 -4.56640625 29.625 C-0.4849861 27.34699806 3.54497772 27.88508712 8.12109375 28.125 C5.34763658 33.37997148 2.4053751 36.26300704 -3.19140625 38.375 C-10.0908422 39.77827511 -14.89757343 39.81783828 -21.0546875 36.39453125 C-25.5251573 33.2833906 -28.15562255 29.27227534 -29.87890625 24.125 C-30.77371317 17.29621031 -30.58981616 11.48019731 -26.4453125 5.8125 C-18.93839488 -2.2747529 -10.13557119 -3.6537241 0 0 Z " fill="#3E424D" transform="translate(303.87890625,164.875)"/>
<path d="M0 0 C7.26 0 14.52 0 22 0 C22 2.31 22 4.62 22 7 C19.69 7 17.38 7 15 7 C15 17.89 15 28.78 15 40 C12.36 40 9.72 40 7 40 C7 29.11 7 18.22 7 7 C4.69 7 2.38 7 0 7 C0 4.69 0 2.38 0 0 Z " fill="#40434E" transform="translate(616,164)"/>
<path d="M0 0 C2.64 0 5.28 0 8 0 C8 10.89 8 21.78 8 33 C11.96 33 15.92 33 20 33 C20 35.31 20 37.62 20 40 C13.4 40 6.8 40 0 40 C0 26.8 0 13.6 0 0 Z " fill="#3E424D" transform="translate(786,164)"/>
<path d="M0 0 C43.56 0 87.12 0 132 0 C132 0.99 132 1.98 132 3 C88.44 3 44.88 3 0 3 C0 2.01 0 1.02 0 0 Z " fill="#40434E" transform="translate(265,231)"/>
<path d="M0 0 C42.57 0 85.14 0 129 0 C129.33 0.99 129.66 1.98 130 3 C87.1 3 44.2 3 0 3 C0 2.01 0 1.02 0 0 Z " fill="#40434E" transform="translate(686,231)"/>
<path d="M0 0 C2.64 0 5.28 0 8 0 C8 13.2 8 26.4 8 40 C5.36 40 2.72 40 0 40 C0 26.8 0 13.6 0 0 Z " fill="#40444F" transform="translate(548,164)"/>
<path d="M0 0 C2.9375 2.0625 2.9375 2.0625 5 5 C5.69151325 9.30274909 5.51557405 11.20945312 3.125 14.875 C0.61333682 17.38666318 -0.29384163 17.92153796 -3.8125 18.3125 C-7.7307645 17.92835642 -9.21293267 16.70743683 -12 14 C-13.42662219 11.14675563 -13.31033868 9.16545451 -13 6 C-9.27891473 0.41837209 -6.70473214 -0.68183717 0 0 Z " fill="#030303" transform="translate(840,44)"/>
<path d="M0 0 C6.27 0 12.54 0 19 0 C18.67 0.66 18.34 1.32 18 2 C16.35 2 14.7 2 13 2 C13.33 3.32 13.66 4.64 14 6 C15.65 6 17.3 6 19 6 C18.67 6.66 18.34 7.32 18 8 C16.68 8 15.36 8 14 8 C13.773125 8.763125 13.54625 9.52625 13.3125 10.3125 C11.43377904 14.15940482 8.69419772 15.15290114 5 17 C5.721875 17.85464844 6.44375 18.70929688 7.1875 19.58984375 C8.12512827 20.70562139 9.06262131 21.82151267 10 22.9375 C10.71542969 23.78344727 10.71542969 23.78344727 11.4453125 24.64648438 C15 28.88671875 15 28.88671875 15 30 C12.86328125 30.39453125 12.86328125 30.39453125 10 30 C7.81472451 27.9326881 6.04163308 26.01692487 4.1875 23.6875 C3.68541016 23.09259766 3.18332031 22.49769531 2.66601562 21.88476562 C-1 17.42070578 -1 17.42070578 -1 14 C-0.06027344 13.85304687 -0.06027344 13.85304687 0.8984375 13.703125 C1.71570313 13.55359375 2.53296875 13.4040625 3.375 13.25 C4.18710938 13.11078125 4.99921875 12.9715625 5.8359375 12.828125 C8.52342062 12.07902504 8.52342062 12.07902504 10 8 C6.37 8 2.74 8 -1 8 C-0.67 7.34 -0.34 6.68 0 6 C2.97 6 5.94 6 9 6 C9 5.34 9 4.68 9 4 C5.7 3.34 2.4 2.68 -1 2 C-0.67 1.34 -0.34 0.68 0 0 Z " fill="#AB9363" transform="translate(107,163)"/>
<path d="M0 0 C8.70967742 0 8.70967742 0 12 3 C13.0625 6.4375 13.0625 6.4375 13 10 C11.5 12.4375 11.5 12.4375 9 14 C5.25 14.25 5.25 14.25 2 14 C2 15.98 2 17.96 2 20 C1.34 20 0.68 20 0 20 C0 13.4 0 6.8 0 0 Z " fill="#A9915B" transform="translate(666,226)"/>
<path d="M0 0 C2.0625 1.5625 2.0625 1.5625 3 4 C2.875 7.625 2.875 7.625 2 11 C-1.69486103 13.46324069 -3.63293092 13.38991688 -8 13 C-9.9375 11.9375 -9.9375 11.9375 -11 10 C-11.36248449 6.61681143 -11.58433618 4.13215135 -10 1.0625 C-6.75482811 -0.66149757 -3.58008387 -0.65498416 0 0 Z " fill="#968254" transform="translate(499,227)"/>
<path d="M0 0 C3.30188468 1.19429871 4.84850026 2.25038496 6.9375 5.0625 C6.9375 6.3825 6.9375 7.7025 6.9375 9.0625 C3.3075 9.0625 -0.3225 9.0625 -4.0625 9.0625 C-3.7325 9.7225 -3.4025 10.3825 -3.0625 11.0625 C-0.7525 11.0625 1.5575 11.0625 3.9375 11.0625 C3.6075 12.0525 3.2775 13.0425 2.9375 14.0625 C-3.45905172 14.42456897 -3.45905172 14.42456897 -5.9375 12.9375 C-7.59423428 10.17627619 -8.0625 8.29671175 -8.0625 5.0625 C-5.59748206 1.55171687 -4.37309219 0.08924678 0 0 Z " fill="#A68E58" transform="translate(538.0625,225.9375)"/>
<path d="M0 0 C2 1.1875 2 1.1875 3 3 C3 4.65 3 6.3 3 8 C-0.3 8.33 -3.6 8.66 -7 9 C-4.23735711 9.59732819 -1.83967231 10 1 10 C0.67 10.99 0.34 11.98 0 13 C-7.32215357 13.36010591 -7.32215357 13.36010591 -10 11.9375 C-11.58433618 8.86784865 -11.36248449 6.38318857 -11 3 C-8.83533683 -1.19403489 -4.15117021 -0.6313238 0 0 Z " fill="#A48D59" transform="translate(659,227)"/>
<path d="M0 0 C0.99 0 1.98 0 3 0 C4.25664978 2.90600261 5 4.79604584 5 8 C5.66 8 6.32 8 7 8 C7.33 5.69 7.66 3.38 8 1 C9.32 0.67 10.64 0.34 12 0 C13.25664978 2.90600261 14 4.79604584 14 8 C14.66 8 15.32 8 16 8 C16.33 5.69 16.66 3.38 17 1 C17.99 0.67 18.98 0.34 20 0 C18.07289294 10.55808656 18.07289294 10.55808656 16 15 C15.34 15 14.68 15 14 15 C12.68 12.03 11.36 9.06 10 6 C9.01 8.64 8.02 11.28 7 14 C6.01 13.67 5.02 13.34 4 13 C2.83203125 10.56640625 2.83203125 10.56640625 1.8125 7.5625 C1.46832031 6.57378906 1.12414062 5.58507812 0.76953125 4.56640625 C0 2 0 2 0 0 Z " fill="#978150" transform="translate(406,226)"/>
<path d="M0 0 C2 1.1875 2 1.1875 3 3 C3 4.65 3 6.3 3 8 C-0.3 8.33 -3.6 8.66 -7 9 C-4.23735711 9.59732819 -1.83967231 10 1 10 C0.67 10.99 0.34 11.98 0 13 C-7.40256709 13.48541424 -7.40256709 13.48541424 -10 11.375 C-11.2766188 8.34303035 -11.41616519 6.25996064 -11 3 C-8.77298527 -1.17565261 -4.16784973 -0.63386048 0 0 Z " fill="#948154" transform="translate(577,227)"/>
<path d="M0 0 C0.99 0 1.98 0 3 0 C3.33 3.3 3.66 6.6 4 10 C5.32 10.33 6.64 10.66 8 11 C8.33 7.37 8.66 3.74 9 0 C9.99 0 10.98 0 12 0 C12.08089542 2.77141717 12.14044062 5.54047819 12.1875 8.3125 C12.22520508 9.49102539 12.22520508 9.49102539 12.26367188 10.69335938 C12.27817383 11.8293457 12.27817383 11.8293457 12.29296875 12.98828125 C12.31653442 14.03302612 12.31653442 14.03302612 12.34057617 15.09887695 C11.89328524 17.59569023 10.98371231 18.46701072 9 20 C6.4375 20.3125 6.4375 20.3125 4 20 C3.34 19.34 2.68 18.68 2 18 C2 17.01 2 16.02 2 15 C4.97 15.495 4.97 15.495 8 16 C8.33 15.34 8.66 14.68 9 14 C7.6078125 14.12375 7.6078125 14.12375 6.1875 14.25 C3 14 3 14 1.3125 12.3125 C-0.25476002 9.5511371 -0.31178774 7.8986227 -0.1875 4.75 C-0.16042969 3.85796875 -0.13335937 2.9659375 -0.10546875 2.046875 C-0.07066406 1.37140625 -0.03585937 0.6959375 0 0 Z " fill="#988353" transform="translate(472,226)"/>
<path d="M0 0 C0.99 0 1.98 0 3 0 C3.33 3.63 3.66 7.26 4 11 C5.32 11.33 6.64 11.66 8 12 C8.33 8.04 8.66 4.08 9 0 C9.99 0 10.98 0 12 0 C12.1081866 2.58445773 12.18737237 5.16437352 12.25 7.75 C12.30027344 8.84441406 12.30027344 8.84441406 12.3515625 9.9609375 C12.41653054 13.53417987 12.29513264 15.58783201 10.1875 18.53125 C8 20 8 20 4.75 19.75 C3.8425 19.5025 2.935 19.255 2 19 C1.67 17.68 1.34 16.36 1 15 C3.31 15.33 5.62 15.66 8 16 C8.33 15.34 8.66 14.68 9 14 C8.071875 14.061875 7.14375 14.12375 6.1875 14.1875 C3 14 3 14 1.3125 12.84375 C-0.51962482 10.27005085 -0.29770208 8.43489214 -0.1875 5.3125 C-0.16042969 4.31863281 -0.13335938 3.32476562 -0.10546875 2.30078125 C-0.07066406 1.54152344 -0.03585937 0.78226563 0 0 Z " fill="#988354" transform="translate(597,226)"/>
<path d="M0 0 C0 3 0 3 -1 5 C28.7 5 58.4 5 89 5 C88.505 2.525 88.505 2.525 88 0 C89.68762851 1.6454378 91.3540349 3.31288577 93 5 C93 5.33 93 5.66 93 6 C60.99 6 28.98 6 -4 6 C-2.68 4.02 -1.36 2.04 0 0 Z " fill="#A9935F" transform="translate(642,140)"/>
<path d="M0 0 C1.68762851 1.6454378 3.3540349 3.31288577 5 5 C5 5.33 5 5.66 5 6 C-27.01 6 -59.02 6 -92 6 C-91.01 5.01 -90.02 4.02 -89 3 C-89 3.66 -89 4.32 -89 5 C-59.3 5 -29.6 5 1 5 C0.505 2.525 0.505 2.525 0 0 Z " fill="#AA935F" transform="translate(506,140)"/>
<path d="M0 0 C0 0.99 0 1.98 0 3 C-1.051875 3.680625 -2.10375 4.36125 -3.1875 5.0625 C-8.86775599 8.84165612 -11.66540479 15.44541546 -13 22 C-13.11265455 24.02673548 -13.17768551 26.0563459 -13.2109375 28.0859375 C-13.23929688 29.26414062 -13.26765625 30.44234375 -13.296875 31.65625 C-13.34879108 34.12745538 -13.39311169 36.59883247 -13.4296875 39.0703125 C-13.460625 40.25109375 -13.4915625 41.431875 -13.5234375 42.6484375 C-13.54325684 43.72270996 -13.56307617 44.79698242 -13.58349609 45.90380859 C-14.05856678 49.43537154 -15.25726778 51.91447843 -17 55 C-18 52 -18 52 -17.5859375 49.94140625 C-16.90048088 46.50041401 -16.81485789 43.20267153 -16.71020508 39.70214844 C-16.3193624 27.02047946 -15.8146846 14.95206326 -7 5 C-4.74480179 3.07085454 -2.53370073 1.57089445 0 0 Z " fill="#9D895C" transform="translate(185,92)"/>
<path d="M0 0 C0 0.99 0 1.98 0 3 C-15.84 3 -31.68 3 -48 3 C-48 2.34 -48 1.68 -48 1 C-41.48552094 0.85728102 -34.97103458 0.71489882 -28.45654297 0.57275391 C-26.23909334 0.52432946 -24.02164542 0.47582711 -21.80419922 0.42724609 C-18.62207472 0.35754377 -15.43994428 0.28811904 -12.2578125 0.21875 C-11.26194122 0.19687622 -10.26606995 0.17500244 -9.24002075 0.15246582 C-8.31921722 0.13244507 -7.3984137 0.11242432 -6.44970703 0.09179688 C-5.6369632 0.07403198 -4.82421936 0.05626709 -3.98684692 0.03796387 C-2.65808024 0.01257433 -1.32900922 0 0 0 Z " fill="#9C8756" transform="translate(137,223)"/>
<path d="M0 0 C-8.23001764 2.90471211 -16.36735515 4.02163358 -25 5 C-25.12846313 6.02154175 -25.12846313 6.02154175 -25.25952148 7.0637207 C-25.64904757 10.14705243 -26.04321902 13.22977286 -26.4375 16.3125 C-26.63956055 17.9202832 -26.63956055 17.9202832 -26.84570312 19.56054688 C-26.97783203 20.58857422 -27.10996094 21.61660156 -27.24609375 22.67578125 C-27.36654053 23.62364502 -27.4869873 24.57150879 -27.61108398 25.5480957 C-28 28 -28 28 -29 31 C-30.8125 30.875 -30.8125 30.875 -33 30 C-36 24.96428571 -36 24.96428571 -36 22 C-35.34 22 -34.68 22 -34 22 C-33.71125 22.969375 -33.4225 23.93875 -33.125 24.9375 C-32.35785318 28.10664203 -32.35785318 28.10664203 -30 29 C-29.93941406 27.78441406 -29.87882813 26.56882813 -29.81640625 25.31640625 C-29.73201668 23.73175772 -29.6473679 22.14712298 -29.5625 20.5625 C-29.52318359 19.76005859 -29.48386719 18.95761719 -29.44335938 18.13085938 C-29.11328125 12.11328125 -29.11328125 12.11328125 -28 11 C-27.835 9.845 -27.67 8.69 -27.5 7.5 C-27 4 -27 4 -26 3 C-23.42102306 2.67762788 -20.84068179 2.48732696 -18.25 2.28125 C-16.03334648 2.23799335 -16.03334648 2.23799335 -15 1 C-13.52603261 0.79231771 -12.0450874 0.63283983 -10.5625 0.5 C-1.15273775 -0.34582133 -1.15273775 -0.34582133 0 0 Z " fill="#A28C5D" transform="translate(198,140)"/>
<path d="M0 0 C1.8125 1.1875 1.8125 1.1875 3 3 C3.4334014 5.88934264 3.42525784 7.35092224 1.8125 9.8125 C-0.64907776 11.42525784 -2.11065736 11.4334014 -5 11 C-6.8125 9.8125 -6.8125 9.8125 -8 8 C-8.4334014 5.11065736 -8.42525784 3.64907776 -6.8125 1.1875 C-4.35092224 -0.42525784 -2.88934264 -0.4334014 0 0 Z " fill="#A38A51" transform="translate(516,179)"/>
<path d="M0 0 C3.36029241 3.25189588 6.57255 6.63166483 9.75 10.0625 C10.91789062 11.31740234 10.91789062 11.31740234 12.109375 12.59765625 C13.89621248 14.86812122 14.60970441 16.18336685 15 19 C0.78916737 21.58378775 -12.40792466 20.15645063 -25 13 C-24.34 12.67 -23.68 12.34 -23 12 C-21.36781191 12.67207745 -19.73578925 13.34932835 -18.14453125 14.11328125 C-11.27415961 16.95403601 -4.93766275 17.39467611 2.4375 17.625 C3.45521484 17.66367188 4.47292969 17.70234375 5.52148438 17.7421875 C8.01414936 17.83580872 10.5068195 17.92153993 13 18 C12.39671875 17.26394531 11.7934375 16.52789062 11.171875 15.76953125 C10.37265625 14.79371094 9.5734375 13.81789062 8.75 12.8125 C7.96109375 11.84957031 7.1721875 10.88664063 6.359375 9.89453125 C5.58078125 8.93933594 4.8021875 7.98414063 4 7 C3.24203125 6.09636719 2.4840625 5.19273437 1.703125 4.26171875 C0 2 0 2 0 0 Z " fill="#9E8A5D" transform="translate(137,127)"/>
<path d="M0 0 C1.875 1.125 1.875 1.125 3 3 C2.77669287 6.64734979 2.61627165 8.38372835 0 11 C-2.84602594 11.36487512 -4.3864306 11.40199375 -6.8125 9.8125 C-8.42525784 7.35092224 -8.4334014 5.88934264 -8 3 C-5.85607122 -0.27231235 -3.76836426 -0.56525464 0 0 Z " fill="#A48B51" transform="translate(756,179)"/>
<path d="M0 0 C2.5625 0.3125 2.5625 0.3125 4.375 1.5 C5.98775784 3.96157776 5.9959014 5.42315736 5.5625 8.3125 C4.375 10.125 4.375 10.125 2.5625 11.3125 C0.0625 11.75 0.0625 11.75 -2.4375 11.3125 C-4.3125 9.625 -4.3125 9.625 -5.4375 7.3125 C-5.14609088 3.23277231 -4.43505664 0.56859701 0 0 Z " fill="#A38A51" transform="translate(663.4375,178.6875)"/>
<path d="M0 0 C2 2 2 2 2.25 5.5 C2 9 2 9 0 11 C-2.79844834 11.35877543 -4.403308 11.33812547 -6.875 9.9375 C-8.67936761 6.82997801 -7.81177938 4.37200667 -7 1 C-4.48718205 -0.25640898 -2.78302919 -0.20872719 0 0 Z " fill="#A68C52" transform="translate(341,179)"/>
<path d="M0 0 C2.5625 0.3125 2.5625 0.3125 4.375 1.5 C5.98775784 3.96157776 5.9959014 5.42315736 5.5625 8.3125 C4.375 10.125 4.375 10.125 2.5625 11.3125 C0 11.625 0 11.625 -2.4375 11.3125 C-4.4375 9.3125 -4.4375 9.3125 -4.6875 5.8125 C-4.40166115 1.81075612 -4.09542045 0.5250539 0 0 Z " fill="#A78D53" transform="translate(589.4375,178.6875)"/>
<path d="M0 0 C3.625 0.375 3.625 0.375 7 1 C8.32561852 7.38707103 8.32561852 7.38707103 6.9375 10 C4.05932137 11.48551155 2.0547415 10.79688909 -1 10 C-2 9 -2 9 -2.1875 5.5625 C-2 2 -2 2 0 0 Z " fill="#A78D53" transform="translate(429,179)"/>
<path d="M0 0 C2.9375 0.875 2.9375 0.875 4.3125 2.9375 C4.51875 3.576875 4.725 4.21625 4.9375 4.875 C2.2975 4.545 -0.3425 4.215 -3.0625 3.875 C-2.485 4.143125 -1.9075 4.41125 -1.3125 4.6875 C0.9700868 5.89219859 2.9112942 7.28298115 4.9375 8.875 C4.0625 12.75 4.0625 12.75 2.9375 13.875 C0.60452567 13.91592937 -1.72955225 13.91741723 -4.0625 13.875 C-4.7225 12.555 -5.3825 11.235 -6.0625 9.875 C-3.7525 10.205 -1.4425 10.535 0.9375 10.875 C1.2675 10.215 1.5975 9.555 1.9375 8.875 C0.803125 8.730625 -0.33125 8.58625 -1.5 8.4375 C-5.0625 7.875 -5.0625 7.875 -6.0625 6.875 C-6.3125 4.4375 -6.3125 4.4375 -6.0625 1.875 C-3.0625 -0.125 -3.0625 -0.125 0 0 Z " fill="#968253" transform="translate(628.0625,226.125)"/>
<path d="M0 0 C5.42857143 -0.36190476 5.42857143 -0.36190476 7.875 1.1875 C9.40659584 3.65507108 9.42822025 5.14519831 9 8 C7.875 9.8125 7.875 9.8125 6 11 C2.8125 11.1875 2.8125 11.1875 0 11 C0 7.37 0 3.74 0 0 Z " fill="#020205" transform="translate(471,171)"/>
<path d="M0 0 C2.9375 2.0625 2.9375 2.0625 5 5 C5.69151325 9.30274909 5.51557405 11.20945312 3.125 14.875 C0.61333682 17.38666318 -0.29384163 17.92153796 -3.8125 18.3125 C-7.7307645 17.92835642 -9.21293267 16.70743683 -12 14 C-13.42662219 11.14675563 -13.31033868 9.16545451 -13 6 C-9.27891473 0.41837209 -6.70473214 -0.68183717 0 0 Z M-10 3.0625 C-11.60856522 6.17909511 -11.42213381 8.56262469 -11 12 C-9.52006844 14.56338689 -9.52006844 14.56338689 -7 16 C-4.04308291 16.75015195 -4.04308291 16.75015195 -1 16 C2.06307631 14.02033737 2.06307631 14.02033737 4 11 C4 7.79268852 3.50971468 5.8994965 1.9375 3.125 C-1.7288151 0.99617188 -6.27728072 1.08480538 -10 3.0625 Z " fill="#252423" transform="translate(840,44)"/>
<path d="M0 0 C0.66 0 1.32 0 2 0 C2 2.64 2 5.28 2 8 C3.11375 7.95875 4.2275 7.9175 5.375 7.875 C9 8 9 8 11 10 C11.1953125 12.6015625 11.1953125 12.6015625 11.125 15.625 C11.10695313 16.62789062 11.08890625 17.63078125 11.0703125 18.6640625 C11.03550781 19.82035156 11.03550781 19.82035156 11 21 C10.34 21 9.68 21 9 21 C8.67 18.03 8.34 15.06 8 12 C6.68 11.67 5.36 11.34 4 11 C2.41727399 12.58272601 2.65264253 14.38034003 2.4375 16.5625 C2.35371094 17.38878906 2.26992188 18.21507812 2.18359375 19.06640625 C2.12300781 19.70449219 2.06242187 20.34257812 2 21 C1.34 21 0.68 21 0 21 C0 14.07 0 7.14 0 0 Z " fill="#A8915E" transform="translate(448,219)"/>
<path d="M0 0 C0.99 0 1.98 0 3 0 C3 2.31 3 4.62 3 7 C3.66 7 4.32 7 5 7 C5 7.99 5 8.98 5 10 C4.34 10 3.68 10 3 10 C3 12.97 3 15.94 3 19 C3.99 19 4.98 19 6 19 C6 19.99 6 20.98 6 22 C1.125 21.125 1.125 21.125 0 20 C-0.07205511 18.31391034 -0.08386068 16.62499341 -0.0625 14.9375 C-0.05347656 14.01839844 -0.04445313 13.09929687 -0.03515625 12.15234375 C-0.02355469 11.44207031 -0.01195312 10.73179687 0 10 C-0.66 10 -1.32 10 -2 10 C-2 9.01 -2 8.02 -2 7 C-1.34 7 -0.68 7 0 7 C0 4.69 0 2.38 0 0 Z " fill="#8E7A4E" transform="translate(638,219)"/>
<path d="M0 0 C0.99 0 1.98 0 3 0 C3 2.31 3 4.62 3 7 C3.66 7 4.32 7 5 7 C5 7.99 5 8.98 5 10 C4.34 10 3.68 10 3 10 C3 12.97 3 15.94 3 19 C3.99 19 4.98 19 6 19 C6 19.66 6 20.32 6 21 C4.33388095 21.042721 2.66617115 21.04063832 1 21 C0 20 0 20 -0.09765625 17.71484375 C-0.08025391 16.34005859 -0.08025391 16.34005859 -0.0625 14.9375 C-0.05347656 14.01839844 -0.04445313 13.09929687 -0.03515625 12.15234375 C-0.02355469 11.44207031 -0.01195312 10.73179687 0 10 C-0.66 10 -1.32 10 -2 10 C-2 9.01 -2 8.02 -2 7 C-1.34 7 -0.68 7 0 7 C0 4.69 0 2.38 0 0 Z " fill="#927E51" transform="translate(438,219)"/>
<path d="M0 0 C0.99 0.33 1.98 0.66 3 1 C4.6875 4.5625 4.6875 4.5625 6 8 C7.77706209 5.33440687 8.87548273 2.9719385 10 0 C10.99 0 11.98 0 13 0 C9.92482916 10.55808656 9.92482916 10.55808656 8 15 C7.01 15 6.02 15 5 15 C4.16013916 13.06532058 3.32831973 11.12714871 2.5 9.1875 C2.0359375 8.10855469 1.571875 7.02960938 1.09375 5.91796875 C0 3 0 3 0 0 Z " fill="#9B8655" transform="translate(549,226)"/>
<path d="M0 0 C0.66 0 1.32 0 2 0 C2.33 3.3 2.66 6.6 3 10 C4.32 10.33 5.64 10.66 7 11 C8.66342837 9.33657163 8.36048097 7.2174291 8.5625 4.9375 C8.64628906 4.01839844 8.73007812 3.09929687 8.81640625 2.15234375 C8.87699219 1.44207031 8.93757812 0.73179687 9 0 C9.66 0 10.32 0 11 0 C11 4.95 11 9.9 11 15 C9.55625 14.87625 8.1125 14.7525 6.625 14.625 C5.81289063 14.55539063 5.00078125 14.48578125 4.1640625 14.4140625 C2 14 2 14 0 12 C-0.1953125 9.1796875 -0.1953125 9.1796875 -0.125 5.875 C-0.10695313 4.77929688 -0.08890625 3.68359375 -0.0703125 2.5546875 C-0.04710937 1.71164063 -0.02390625 0.86859375 0 0 Z " fill="#A48E5C" transform="translate(506,226)"/>
<path d="M0 0 C0.99 0 1.98 0 3 0 C3.33 3.3 3.66 6.6 4 10 C5.32 10.33 6.64 10.66 8 11 C8.33 7.37 8.66 3.74 9 0 C9.33 0 9.66 0 10 0 C10 4.62 10 9.24 10 14 C3 14 3 14 1.07421875 12.328125 C-0.18798813 9.59257846 -0.30588722 7.74914302 -0.1875 4.75 C-0.16042969 3.85796875 -0.13335937 2.9659375 -0.10546875 2.046875 C-0.07066406 1.37140625 -0.03585937 0.6959375 0 0 Z " fill="#8D7A4D" transform="translate(472,226)"/>
<path d="M0 0 C2.56529454 1.28264727 2.66499863 2.22772349 3.625 4.875 C3.88539063 5.57367188 4.14578125 6.27234375 4.4140625 6.9921875 C5 9 5 9 5 12 C2.03 12 -0.94 12 -4 12 C-3.52309796 10.37433394 -3.04340334 8.74948689 -2.5625 7.125 C-2.29566406 6.22007812 -2.02882813 5.31515625 -1.75390625 4.3828125 C-1 2 -1 2 0 0 Z " fill="#030406" transform="translate(386,176)"/>
<path d="M0 0 C2.34914492 2.34914492 2.73140357 3.95679446 3.625 7.125 C3.88539063 8.03507813 4.14578125 8.94515625 4.4140625 9.8828125 C4.70410156 10.93082031 4.70410156 10.93082031 5 12 C2.03 12 -0.94 12 -4 12 C-3.45660208 7.43545749 -2.20536179 4.0271824 0 0 Z " fill="#030407" transform="translate(709,176)"/>
<path d="M0 0 C2.5625 0.1875 2.5625 0.1875 4.5625 2.1875 C4.8125 4.6875 4.8125 4.6875 4.5625 7.1875 C3.9025 7.8475 3.2425 8.5075 2.5625 9.1875 C-0.5625 8.8125 -0.5625 8.8125 -3.4375 8.1875 C-3.47991723 5.85455225 -3.47842937 3.52047433 -3.4375 1.1875 C-2.4375 0.1875 -2.4375 0.1875 0 0 Z " fill="#120C04" transform="translate(671.4375,228.8125)"/>
<path d="M0 0 C4.55555556 0.55555556 4.55555556 0.55555556 6 2 C6.1875 4.4375 6.1875 4.4375 6 7 C5.34 7.66 4.68 8.32 4 9 C-0.55555556 8.44444444 -0.55555556 8.44444444 -2 7 C-2.1875 4.5625 -2.1875 4.5625 -2 2 C-1.34 1.34 -0.68 0.68 0 0 Z " fill="#0B0500" transform="translate(493,229)"/>
<path d="M0 0 C2.31 0 4.62 0 7 0 C7.97001682 3.39505887 8 6.47064557 8 10 C6 10 6 10 3.875 8 C3.25625 7.34 2.6375 6.68 2 6 C2 7.32 2 8.64 2 10 C1.34 10 0.68 10 0 10 C0 6.7 0 3.4 0 0 Z " fill="#242321" transform="translate(832,48)"/>
<path d="M0 0 C0.33 0.66 0.66 1.32 1 2 C2.65 2 4.3 2 6 2 C6.66 3.32 7.32 4.64 8 6 C4.97265625 6.24414062 4.97265625 6.24414062 1.9453125 6.48828125 C-0.39519216 6.87393036 -0.39519216 6.87393036 -2 10 C-3 9 -3 9 -3.25 6.125 C-3 3 -3 3 -1.5 1.125 C-1.005 0.75375 -0.51 0.3825 0 0 Z " fill="#9F8754" transform="translate(569,227)"/>
<path d="M0 0 C0.33 0.99 0.66 1.98 1 3 C5.29 3 9.58 3 14 3 C14.33 2.01 14.66 1.02 15 0 C15 1.32 15 2.64 15 4 C11.37 4 7.74 4 4 4 C4.33 4.66 4.66 5.32 5 6 C7.31 6 9.62 6 12 6 C11.67 6.99 11.34 7.98 11 9 C4.60344828 9.36206897 4.60344828 9.36206897 2.125 7.875 C0.59569177 5.32615294 0.32529059 2.92761527 0 0 Z " fill="#7C6B43" transform="translate(530,231)"/>
<path d="M0 0 C2.64 0 5.28 0 8 0 C8.33 0.99 8.66 1.98 9 3 C7.02 3.66 5.04 4.32 3 5 C2.67 7.97 2.34 10.94 2 14 C1.34 14 0.68 14 0 14 C0 9.38 0 4.76 0 0 Z " fill="#A08A58" transform="translate(584,226)"/>
<path d="M0 0 C8.96101244 -0.21767642 17.2215548 -0.04404545 26 2 C26 2.33 26 2.66 26 3 C23.70839681 3.02692484 21.41670454 3.04636124 19.125 3.0625 C17.84882812 3.07410156 16.57265625 3.08570312 15.2578125 3.09765625 C12 3 12 3 10 2 C8.46331135 1.77532169 6.92031946 1.59203195 5.375 1.4375 C4.55773437 1.35371094 3.74046875 1.26992187 2.8984375 1.18359375 C2.27195312 1.12300781 1.64546875 1.06242187 1 1 C1 3.31 1 5.62 1 8 C0.67 8 0.34 8 0 8 C0 5.36 0 2.72 0 0 Z " fill="#9F8A5D" transform="translate(83,82)"/>
<path d="M0 0 C0.66 0.66 1.32 1.32 2 2 C1.01 2.99 0.02 3.98 -1 5 C8.9 5.33 18.8 5.66 29 6 C29 6.33 29 6.66 29 7 C17.78 7 6.56 7 -5 7 C-3.35 4.69 -1.7 2.38 0 0 Z " fill="#A7905D" transform="translate(743,139)"/>
<path d="M0 0 C4.29 0 8.58 0 13 0 C13 0.33 13 0.66 13 1 C9.7 1.33 6.4 1.66 3 2 C5.76264289 2.59732819 8.16032769 3 11 3 C10.67 3.99 10.34 4.98 10 6 C2.49230769 6.36923077 2.49230769 6.36923077 0 4.5 C-0.33 4.005 -0.66 3.51 -1 3 C-0.67 2.01 -0.34 1.02 0 0 Z " fill="#8F7B4F" transform="translate(649,234)"/>
<path d="M0 0 C0.66 0 1.32 0 2 0 C2.226875 0.804375 2.45375 1.60875 2.6875 2.4375 C3.74766998 5.20258026 3.74766998 5.20258026 6.375 5.9375 C9.23612509 6.00562203 10.60570412 5.50751963 13 4 C12.625 5.9375 12.625 5.9375 12 8 C8.95016004 9.52491998 6.3576631 9.23562548 3 9 C1.0625 7.875 1.0625 7.875 0 6 C-0.1875 2.8125 -0.1875 2.8125 0 0 Z " fill="#A28C5A" transform="translate(488,231)"/>
<path d="M0 0 C0.99 0 1.98 0 3 0 C3 4.95 3 9.9 3 15 C2.01 15 1.02 15 0 15 C0 10.05 0 5.1 0 0 Z " fill="#917E52" transform="translate(430,226)"/>
<path d="M0 0 C0.66 0 1.32 0 2 0 C0.07289294 10.55808656 0.07289294 10.55808656 -2 15 C-2.66 15 -3.32 15 -4 15 C-5.04449911 11.86650268 -4.93423645 11.01031744 -4 8 C-3.34 8 -2.68 8 -2 8 C-1.855625 6.865625 -1.71125 5.73125 -1.5625 4.5625 C-1 1 -1 1 0 0 Z " fill="#927E50" transform="translate(424,226)"/>
<path d="M0 0 C5.75 0.75 5.75 0.75 8 3 C7.34 3 6.68 3 6 3 C6 3.99 6 4.98 6 6 C3.36 6 0.72 6 -2 6 C-1.34 4.02 -0.68 2.04 0 0 Z " fill="#948053" transform="translate(535,226)"/>
<path d="M0 0 C0 3 0 3 -1.57421875 4.61328125 C-2.27160156 5.17402344 -2.96898437 5.73476562 -3.6875 6.3125 C-7.2616422 9.29624216 -10.13964641 12.33517197 -13 16 C-13.66 15.67 -14.32 15.34 -15 15 C-13.77801556 13.41111701 -12.54705525 11.82913536 -11.3125 10.25 C-10.28576172 8.92742187 -10.28576172 8.92742187 -9.23828125 7.578125 C-6.52744606 4.45569703 -3.71599092 1.85799546 0 0 Z " fill="#A38B55" transform="translate(435,62)"/>
<path d="M0 0 C1.65 0.33 3.3 0.66 5 1 C5.625 2.875 5.625 2.875 6 5 C4 7 4 7 0.375 7.125 C-0.73875 7.08375 -1.8525 7.0425 -3 7 C-3.66 5.68 -4.32 4.36 -5 3 C-2.69 3.33 -0.38 3.66 2 4 C2 3.34 2 2.68 2 2 C1.34 1.34 0.68 0.68 0 0 Z " fill="#9D8958" transform="translate(627,233)"/>
<path d="M0 0 C0.99 0 1.98 0 3 0 C2.67 3.63 2.34 7.26 2 11 C2.99 11 3.98 11 5 11 C5 11.99 5 12.98 5 14 C3.35 13.67 1.7 13.34 0 13 C0 8.71 0 4.42 0 0 Z " fill="#9D8757" transform="translate(639,227)"/>
<path d="M0 0 C1.45903258 0.30921884 2.91720722 0.62248799 4.375 0.9375 C5.18710938 1.11152344 5.99921875 1.28554687 6.8359375 1.46484375 C9 2 9 2 11 3 C11 3.66 11 4.32 11 5 C7.7 5.33 4.4 5.66 1 6 C0.67 4.02 0.34 2.04 0 0 Z " fill="#F5ECD7" transform="translate(105,164)"/>
<path d="M0 0 C3.375 -0.125 3.375 -0.125 7 0 C9 2 9 2 9 7 C5.7 7 2.4 7 -1 7 C-1 6.67 -1 6.34 -1 6 C1.64 6 4.28 6 7 6 C5.33045181 2.77595022 5.33045181 2.77595022 2.375 2.3125 C1.59125 2.209375 0.8075 2.10625 0 2 C0 1.34 0 0.68 0 0 Z " fill="#A68F5C" transform="translate(570,227)"/>
<path d="M0 0 C0.66 0.33 1.32 0.66 2 1 C1.67 1.99 1.34 2.98 1 4 C0.236875 4.04125 -0.52625 4.0825 -1.3125 4.125 C-4.32405113 4.77823609 -4.32405113 4.77823609 -5.8125 8.0625 C-6.4003125 9.5165625 -6.4003125 9.5165625 -7 11 C-7.66 11 -8.32 11 -9 11 C-9.33 10.01 -9.66 9.02 -10 8 C-8.71064081 6.85157077 -7.41843421 5.70633773 -6.125 4.5625 C-5.04605469 3.60537109 -5.04605469 3.60537109 -3.9453125 2.62890625 C-2 1 -2 1 0 0 Z " fill="#DAD6CF" transform="translate(104,153)"/>
<path d="M0 0 C3.34708051 1.54841575 6.24667512 3.49105864 9.25 5.625 C10.14203125 6.25664063 11.0340625 6.88828125 11.953125 7.5390625 C12.96632813 8.26222656 12.96632813 8.26222656 14 9 C12.02 9.99 12.02 9.99 10 11 C8.33035479 9.35718838 6.6643536 7.71067239 5 6.0625 C4.071875 5.14597656 3.14375 4.22945313 2.1875 3.28515625 C0 1 0 1 0 0 Z " fill="#594F3B" transform="translate(113,102)"/>
<path d="M0 0 C3.10096781 0.34455198 4.79937138 0.84817294 7.3125 2.75 C9.30929204 5.41238939 9.36116409 6.74952319 9 10 C8.01 9.67 7.02 9.34 6 9 C5.33333333 7.33333333 4.66666667 5.66666667 4 4 C3.01 3.67 2.02 3.34 1 3 C0.67 2.01 0.34 1.02 0 0 Z " fill="#958153" transform="translate(670,226)"/>
<path d="M0 0 C0.66 0 1.32 0 2 0 C2 4.95 2 9.9 2 15 C1.34 15 0.68 15 0 15 C-1.14229879 11.57310364 -0.90861076 9.38897782 -0.5625 5.8125 C-0.46066406 4.72582031 -0.35882813 3.63914063 -0.25390625 2.51953125 C-0.17011719 1.68808594 -0.08632813 0.85664063 0 0 Z " fill="#AA925B" transform="translate(482,226)"/>
<path d="M0 0 C2.875 0.25 2.875 0.25 6 1 C6.66 2.32 7.32 3.64 8 5 C3.545 4.01 3.545 4.01 -1 3 C-0.67 2.01 -0.34 1.02 0 0 Z " fill="#8C7A51" transform="translate(625,226)"/>
<path d="M0 0 C3.96 0.33 7.92 0.66 12 1 C11.34 2.32 10.68 3.64 10 5 C10 4.34 10 3.68 10 3 C7.03 3 4.06 3 1 3 C0.67 2.01 0.34 1.02 0 0 Z " fill="#EFE5CE" transform="translate(105,170)"/>
<path d="M0 0 C3.3 0 6.6 0 10 0 C9.34 1.32 8.68 2.64 8 4 C8 3.34 8 2.68 8 2 C5.69 2.33 3.38 2.66 1 3 C0.67 2.01 0.34 1.02 0 0 Z " fill="#180E05" transform="translate(534,235)"/>
<path d="M0 0 C0 0.99 0 1.98 0 3 C-0.99 3.66 -1.98 4.32 -3 5 C-3.25030977 7.58380177 -3.25030977 7.58380177 -3 10 C-4.65 8.35 -6.3 6.7 -8 5 C-5.37352812 3.24901874 -2.71224618 1.61268692 0 0 Z " fill="#F8F1DD" transform="translate(119,175)"/>
<path d="M0 0 C4.31392226 0.4793247 6.16569547 1.7457985 9 5 C7.68 5.33 6.36 5.66 5 6 C3.35 4.02 1.7 2.04 0 0 Z " fill="#4A4740" transform="translate(124,112)"/>
<path d="M0 0 C0.928125 0.165 1.85625 0.33 2.8125 0.5 C5.95621353 1.07748388 5.95621353 1.07748388 9 1 C8.67 1.99 8.34 2.98 8 4 C5.69 4 3.38 4 1 4 C0.67 2.68 0.34 1.36 0 0 Z " fill="#A58F5D" transform="translate(533,236)"/>
<path d="M0 0 C1.65 0 3.3 0 5 0 C4.01 1.98 3.02 3.96 2 6 C1.01 5.34 0.02 4.68 -1 4 C-0.67 2.68 -0.34 1.36 0 0 Z " fill="#D6D1C5" transform="translate(135,187)"/>
<path d="M0 0 C0.99 0 1.98 0 3 0 C3.66 2.31 4.32 4.62 5 7 C4.01 7 3.02 7 2 7 C1.34 4.69 0.68 2.38 0 0 Z " fill="#8D7B51" transform="translate(406,226)"/>
<path d="M0 0 C2.33944736 0.28730055 4.6739143 0.61936779 7 1 C6.67 1.99 6.34 2.98 6 4 C1.25 3.25 1.25 3.25 -1 1 C-0.67 0.67 -0.34 0.34 0 0 Z " fill="#32230E" transform="translate(599,239)"/>
<path d="M0 0 C0.66 0 1.32 0 2 0 C2 0.99 2 1.98 2 3 C2.99 3 3.98 3 5 3 C4.67 4.32 4.34 5.64 4 7 C3.01 6.67 2.02 6.34 1 6 C0.67 4.02 0.34 2.04 0 0 Z " fill="#A9925D" transform="translate(409,233)"/>
<path d="M0 0 C2.64 0 5.28 0 8 0 C8 0.66 8 1.32 8 2 C6.02 2.33 4.04 2.66 2 3 C1.34 2.01 0.68 1.02 0 0 Z " fill="#160B03" transform="translate(651,235)"/>
<path d="M0 0 C2.64 0 5.28 0 8 0 C8 0.66 8 1.32 8 2 C6.02 2.33 4.04 2.66 2 3 C1.34 2.01 0.68 1.02 0 0 Z " fill="#160B03" transform="translate(569,235)"/>
<path d="M0 0 C0.33 0 0.66 0 1 0 C1.33 2.31 1.66 4.62 2 7 C2.99 7.33 3.98 7.66 5 8 C5 8.66 5 9.32 5 10 C3.35 10 1.7 10 0 10 C0 6.7 0 3.4 0 0 Z " fill="#A6905D" transform="translate(439,230)"/>
<path d="M0 0 C2.97 0.495 2.97 0.495 6 1 C6 1.66 6 2.32 6 3 C3.36 3 0.72 3 -2 3 C-1.34 2.01 -0.68 1.02 0 0 Z " fill="#160B02" transform="translate(535,229)"/>
<path d="M0 0 C0.99 0 1.98 0 3 0 C2.34 2.31 1.68 4.62 1 7 C0.01 7 -0.98 7 -2 7 C-1.34 4.69 -0.68 2.38 0 0 Z " fill="#907D53" transform="translate(559,226)"/>
<path d="M0 0 C1.65 1.65 3.3 3.3 5 5 C4.67 5.66 4.34 6.32 4 7 C3.34 7 2.68 7 2 7 C0.3125 4.625 0.3125 4.625 -1 2 C-0.67 1.34 -0.34 0.68 0 0 Z " fill="#D4CFC2" transform="translate(131,156)"/>
<path d="M0 0 C-0.33 0.99 -0.66 1.98 -1 3 C-2.65 3 -4.3 3 -6 3 C-6 2.01 -6 1.02 -6 0 C-3 -1 -3 -1 0 0 Z " fill="#151514" transform="translate(840,49)"/>
<path d="M0 0 C2.64 0 5.28 0 8 0 C7.67 0.99 7.34 1.98 7 3 C4.83125748 2.49396008 3.00032373 2.00016187 1 1 C0.67 1.66 0.34 2.32 0 3 C0 2.01 0 1.02 0 0 Z " fill="#302311" transform="translate(473,240)"/>
<path d="M0 0 C2.4375 0.375 2.4375 0.375 5 1 C5.33 1.66 5.66 2.32 6 3 C3.36 3 0.72 3 -2 3 C-1.34 2.01 -0.68 1.02 0 0 Z " fill="#0F0500" transform="translate(653,229)"/>
<path d="M0 0 C1.65 0.33 3.3 0.66 5 1 C5.33 1.99 5.66 2.98 6 4 C3.69 3.34 1.38 2.68 -1 2 C-0.67 1.34 -0.34 0.68 0 0 Z " fill="#150A02" transform="translate(625,229)"/>
<path d="M0 0 C2.4375 0.375 2.4375 0.375 5 1 C5.33 1.66 5.66 2.32 6 3 C3.36 3 0.72 3 -2 3 C-1.34 2.01 -0.68 1.02 0 0 Z " fill="#0F0500" transform="translate(571,229)"/>
<path d="M0 0 C0 0.99 0 1.98 0 3 C-1.65 3.33 -3.3 3.66 -5 4 C-5 3.34 -5 2.68 -5 2 C-5.66 1.67 -6.32 1.34 -7 1 C-4 0 -4 0 0 0 Z " fill="#CAC5B9" transform="translate(113,151)"/>
<path d="M0 0 C-0.33 0.99 -0.66 1.98 -1 3 C-3.31 3 -5.62 3 -8 3 C-7 1 -7 1 -5.125 0.375 C-3 0 -3 0 0 0 Z " fill="#9F8A5B" transform="translate(660,237)"/>
<path d="M0 0 C0.99 0.33 1.98 0.66 3 1 C3.33 2.98 3.66 4.96 4 7 C3.01 7.495 3.01 7.495 2 8 C0.74335022 5.09399739 0 3.20395416 0 0 Z " fill="#9F8A59" transform="translate(417,230)"/>
<path d="M0 0 C2 1.3125 2 1.3125 4 3 C4 3.99 4 4.98 4 6 C3.01 6 2.02 6 1 6 C-0.0625 4.125 -0.0625 4.125 -1 2 C-0.67 1.34 -0.34 0.68 0 0 Z " fill="#96814F" transform="translate(658,227)"/>
</svg>
